<?xml version="1.0" encoding="UTF-8" standalone="no"?>
<!DOCTYPE svg PUBLIC "-//W3C//DTD SVG 1.1//EN"
 "http://www.w3.org/Graphics/SVG/1.1/DTD/svg11.dtd">
<!-- Generated by graphviz version 15.0.0 (20260523.1842)
 -->
<!-- Title: architecture Pages: 1 -->
<svg width="405pt" height="108pt"
 viewBox="0.00 0.00 405.00 108.00" xmlns="http://www.w3.org/2000/svg" xmlns:xlink="http://www.w3.org/1999/xlink">
<g id="graph0" class="graph" transform="scale(1 1) rotate(0) translate(4 103.51)">
<title>architecture</title>
<polygon fill="white" stroke="none" points="-4,4 -4,-103.51 401.43,-103.51 401.43,4 -4,4"/>
<!-- artifacts -->
<g id="node1" class="node">
<title>artifacts</title>
<ellipse fill="none" stroke="black" cx="40.6" cy="-18" rx="40.6" ry="18"/>
<text xml:space="preserve" text-anchor="middle" x="40.6" y="-12.95" font-family="Times,serif" font-size="14.00">artifacts</text>
</g>
<!-- ima -->
<g id="node2" class="node">
<title>ima</title>
<ellipse fill="none" stroke="black" cx="250.15" cy="-68" rx="27" ry="18"/>
<text xml:space="preserve" text-anchor="middle" x="250.15" y="-62.95" font-family="Times,serif" font-size="14.00">ima</text>
</g>
<!-- scrapper -->
<g id="node3" class="node">
<title>scrapper</title>
<ellipse fill="none" stroke="black" cx="355.29" cy="-68" rx="42.14" ry="18"/>
<text xml:space="preserve" text-anchor="middle" x="355.29" y="-62.95" font-family="Times,serif" font-size="14.00">scrapper</text>
</g>
<!-- ima&#45;&gt;scrapper -->
<g id="edge1" class="edge">
<title>ima&#45;&gt;scrapper</title>
<path fill="none" stroke="black" d="M277.45,-68C284.83,-68 293.14,-68 301.49,-68"/>
<polygon fill="black" stroke="black" points="301.3,-71.5 311.3,-68 301.3,-64.5 301.3,-71.5"/>
</g>
<!-- scripts -->
<g id="node4" class="node">
<title>scripts</title>
<ellipse fill="none" stroke="black" cx="152.18" cy="-26" rx="34.97" ry="18"/>
<text xml:space="preserve" text-anchor="middle" x="152.18" y="-20.95" font-family="Times,serif" font-size="14.00">scripts</text>
</g>
<!-- scripts&#45;&gt;ima -->
<g id="edge2" class="edge">
<title>scripts&#45;&gt;ima</title>
<path fill="none" stroke="black" d="M179.66,-37.59C191.04,-42.57 204.47,-48.44 216.46,-53.69"/>
<polygon fill="black" stroke="black" points="215.03,-56.89 225.59,-57.69 217.83,-50.47 215.03,-56.89"/>
</g>
<!-- scripts&#45;&gt;scrapper -->
<g id="edge3" class="edge">
<title>scripts&#45;&gt;scrapper</title>
<path fill="none" stroke="black" d="M187.2,-28.12C212.3,-30.17 247.17,-34.03 277.15,-41 289.09,-43.78 301.76,-47.75 313.3,-51.81"/>
<polygon fill="black" stroke="black" points="311.95,-55.04 322.54,-55.16 314.33,-48.46 311.95,-55.04"/>
</g>
<!-- tests -->
<g id="node5" class="node">
<title>tests</title>
<ellipse fill="none" stroke="black" cx="40.6" cy="-72" rx="27.3" ry="18"/>
<text xml:space="preserve" text-anchor="middle" x="40.6" y="-66.95" font-family="Times,serif" font-size="14.00">tests</text>
</g>
<!-- tests&#45;&gt;ima -->
<g id="edge4" class="edge">
<title>tests&#45;&gt;ima</title>
<path fill="none" stroke="black" d="M68.31,-71.49C104.68,-70.78 169.99,-69.53 211.37,-68.73"/>
<polygon fill="black" stroke="black" points="211.43,-72.23 221.36,-68.54 211.3,-65.23 211.43,-72.23"/>
</g>
<!-- tests&#45;&gt;scrapper -->
<g id="edge5" class="edge">
<title>tests&#45;&gt;scrapper</title>
<path fill="none" stroke="black" d="M66.17,-78.66C109.18,-89.37 200.8,-107.98 277.15,-95 289.45,-92.91 302.4,-89.07 314.1,-84.93"/>
<polygon fill="black" stroke="black" points="315.31,-88.22 323.46,-81.45 312.86,-81.66 315.31,-88.22"/>
</g>
<!-- tests&#45;&gt;scripts -->
<g id="edge6" class="edge">
<title>tests&#45;&gt;scripts</title>
<path fill="none" stroke="black" d="M64.31,-62.47C78.6,-56.47 97.4,-48.58 113.85,-41.67"/>
<polygon fill="black" stroke="black" points="114.99,-44.99 122.85,-37.89 112.28,-38.53 114.99,-44.99"/>
</g>
</g>
</svg>
