<?xml version="1.0" encoding="UTF-8" standalone="no"?>
<!DOCTYPE svg PUBLIC "-//W3C//DTD SVG 1.1//EN"
 "http://www.w3.org/Graphics/SVG/1.1/DTD/svg11.dtd">
<!-- Generated by graphviz version 15.0.0 (20260523.1842)
 -->
<!-- Title: architecture Pages: 1 -->
<svg width="1432pt" height="778pt"
 viewBox="0.00 0.00 1432.00 778.00" xmlns="http://www.w3.org/2000/svg" xmlns:xlink="http://www.w3.org/1999/xlink">
<g id="graph0" class="graph" transform="scale(1 1) rotate(0) translate(4 774.42)">
<title>architecture</title>
<polygon fill="white" stroke="none" points="-4,4 -4,-774.42 1427.69,-774.42 1427.69,4 -4,4"/>
<!-- ima/__init__.py -->
<g id="node1" class="node">
<title>ima/__init__.py</title>
<ellipse fill="none" stroke="black" cx="106.11" cy="-38.42" rx="70.29" ry="18"/>
<text xml:space="preserve" text-anchor="middle" x="106.11" y="-33.37" font-family="Times,serif" font-size="14.00">ima/__init__.py</text>
</g>
<!-- ima/authenticated_execution.py -->
<g id="node2" class="node">
<title>ima/authenticated_execution.py</title>
<ellipse fill="none" stroke="black" cx="668.6" cy="-752.42" rx="129.15" ry="18"/>
<text xml:space="preserve" text-anchor="middle" x="668.6" y="-747.37" font-family="Times,serif" font-size="14.00">ima/authenticated_execution.py</text>
</g>
<!-- ima/domain.py -->
<g id="node5" class="node">
<title>ima/domain.py</title>
<ellipse fill="none" stroke="black" cx="954.19" cy="-660.42" rx="67.73" ry="18"/>
<text xml:space="preserve" text-anchor="middle" x="954.19" y="-655.37" font-family="Times,serif" font-size="14.00">ima/domain.py</text>
</g>
<!-- ima/authenticated_execution.py&#45;&gt;ima/domain.py -->
<g id="edge1" class="edge">
<title>ima/authenticated_execution.py&#45;&gt;ima/domain.py</title>
<path fill="none" stroke="black" d="M738.54,-736.86C757.83,-732.06 778.72,-726.44 797.74,-720.42 834.87,-708.67 875.94,-692.68 906.54,-680.17"/>
<polygon fill="black" stroke="black" points="907.58,-683.52 915.5,-676.47 904.92,-677.05 907.58,-683.52"/>
</g>
<!-- ima/auxiliary.py -->
<g id="node3" class="node">
<title>ima/auxiliary.py</title>
<ellipse fill="none" stroke="black" cx="954.19" cy="-506.42" rx="71.82" ry="18"/>
<text xml:space="preserve" text-anchor="middle" x="954.19" y="-501.37" font-family="Times,serif" font-size="14.00">ima/auxiliary.py</text>
</g>
<!-- ima/data.py -->
<g id="node4" class="node">
<title>ima/data.py</title>
<ellipse fill="none" stroke="black" cx="1368.76" cy="-276.42" rx="54.93" ry="18"/>
<text xml:space="preserve" text-anchor="middle" x="1368.76" y="-271.37" font-family="Times,serif" font-size="14.00">ima/data.py</text>
</g>
<!-- ima/auxiliary.py&#45;&gt;ima/data.py -->
<g id="edge2" class="edge">
<title>ima/auxiliary.py&#45;&gt;ima/data.py</title>
<path fill="none" stroke="black" d="M1010.04,-494.8C1077.94,-478.41 1194.78,-443.45 1277.83,-382.42 1307.43,-360.66 1333.63,-327.29 1350.01,-303.82"/>
<polygon fill="black" stroke="black" points="1352.82,-305.91 1355.55,-295.67 1347.03,-301.97 1352.82,-305.91"/>
</g>
<!-- ima/feature_sets.py -->
<g id="node9" class="node">
<title>ima/feature_sets.py</title>
<ellipse fill="none" stroke="black" cx="1194.23" cy="-276.42" rx="83.6" ry="18"/>
<text xml:space="preserve" text-anchor="middle" x="1194.23" y="-271.37" font-family="Times,serif" font-size="14.00">ima/feature_sets.py</text>
</g>
<!-- ima/auxiliary.py&#45;&gt;ima/feature_sets.py -->
<g id="edge3" class="edge">
<title>ima/auxiliary.py&#45;&gt;ima/feature_sets.py</title>
<path fill="none" stroke="black" d="M1019.41,-498.65C1038.58,-493.96 1058.7,-486.45 1074.63,-474.42 1132.92,-430.44 1168.31,-348.75 1183.88,-305.32"/>
<polygon fill="black" stroke="black" points="1187.11,-306.67 1187.08,-296.08 1180.5,-304.38 1187.11,-306.67"/>
</g>
<!-- ima/execution.py -->
<g id="node6" class="node">
<title>ima/execution.py</title>
<ellipse fill="none" stroke="black" cx="668.6" cy="-606.42" rx="75.41" ry="18"/>
<text xml:space="preserve" text-anchor="middle" x="668.6" y="-601.37" font-family="Times,serif" font-size="14.00">ima/execution.py</text>
</g>
<!-- ima/execution.py&#45;&gt;ima/domain.py -->
<g id="edge4" class="edge">
<title>ima/execution.py&#45;&gt;ima/domain.py</title>
<path fill="none" stroke="black" d="M728.7,-617.67C774.99,-626.49 839.35,-638.74 887.29,-647.87"/>
<polygon fill="black" stroke="black" points="886.52,-651.29 897,-649.72 887.83,-644.41 886.52,-651.29"/>
</g>
<!-- ima/experiments.py -->
<g id="node7" class="node">
<title>ima/experiments.py</title>
<ellipse fill="none" stroke="black" cx="668.6" cy="-138.42" rx="85.13" ry="18"/>
<text xml:space="preserve" text-anchor="middle" x="668.6" y="-133.37" font-family="Times,serif" font-size="14.00">ima/experiments.py</text>
</g>
<!-- ima/experiments.py&#45;&gt;ima/data.py -->
<g id="edge5" class="edge">
<title>ima/experiments.py&#45;&gt;ima/data.py</title>
<path fill="none" stroke="black" d="M720.78,-123.88C832.32,-95.41 1101.43,-44.5 1277.83,-158.42 1312.4,-180.75 1338.85,-221.17 1353.85,-248.41"/>
<polygon fill="black" stroke="black" points="1350.71,-249.96 1358.5,-257.15 1356.89,-246.67 1350.71,-249.96"/>
</g>
<!-- ima/experiments.py&#45;&gt;ima/feature_sets.py -->
<g id="edge6" class="edge">
<title>ima/experiments.py&#45;&gt;ima/feature_sets.py</title>
<path fill="none" stroke="black" d="M697.84,-155.66C729.7,-174.3 783.62,-203.48 833.74,-219.42 922.96,-247.78 1029.3,-262.41 1103.08,-269.7"/>
<polygon fill="black" stroke="black" points="1102.38,-273.14 1112.67,-270.62 1103.05,-266.18 1102.38,-273.14"/>
</g>
<!-- ima/mlflow_tracking.py -->
<g id="node14" class="node">
<title>ima/mlflow_tracking.py</title>
<ellipse fill="none" stroke="black" cx="954.19" cy="-46.42" rx="101.51" ry="18"/>
<text xml:space="preserve" text-anchor="middle" x="954.19" y="-41.37" font-family="Times,serif" font-size="14.00">ima/mlflow_tracking.py</text>
</g>
<!-- ima/experiments.py&#45;&gt;ima/mlflow_tracking.py -->
<g id="edge7" class="edge">
<title>ima/experiments.py&#45;&gt;ima/mlflow_tracking.py</title>
<path fill="none" stroke="black" d="M710.4,-122.36C743.4,-109.65 791.21,-91.86 833.74,-78.42 849.46,-73.45 866.5,-68.59 882.64,-64.21"/>
<polygon fill="black" stroke="black" points="883.44,-67.62 892.19,-61.65 881.63,-60.86 883.44,-67.62"/>
</g>
<!-- ima/modeling.py -->
<g id="node15" class="node">
<title>ima/modeling.py</title>
<ellipse fill="none" stroke="black" cx="954.19" cy="-322.42" rx="74.89" ry="18"/>
<text xml:space="preserve" text-anchor="middle" x="954.19" y="-317.37" font-family="Times,serif" font-size="14.00">ima/modeling.py</text>
</g>
<!-- ima/experiments.py&#45;&gt;ima/modeling.py -->
<g id="edge8" class="edge">
<title>ima/experiments.py&#45;&gt;ima/modeling.py</title>
<path fill="none" stroke="black" d="M693.67,-156.01C725.32,-178.93 782.87,-219.91 833.74,-252.42 859.86,-269.1 889.96,-286.74 913.41,-300.13"/>
<polygon fill="black" stroke="black" points="911.62,-303.13 922.04,-305.03 915.08,-297.05 911.62,-303.13"/>
</g>
<!-- ima/pipeline_transparency.py -->
<g id="node19" class="node">
<title>ima/pipeline_transparency.py</title>
<ellipse fill="none" stroke="black" cx="954.19" cy="-138.42" rx="120.45" ry="18"/>
<text xml:space="preserve" text-anchor="middle" x="954.19" y="-133.37" font-family="Times,serif" font-size="14.00">ima/pipeline_transparency.py</text>
</g>
<!-- ima/experiments.py&#45;&gt;ima/pipeline_transparency.py -->
<g id="edge9" class="edge">
<title>ima/experiments.py&#45;&gt;ima/pipeline_transparency.py</title>
<path fill="none" stroke="black" d="M753.92,-138.42C775.31,-138.42 798.81,-138.42 821.94,-138.42"/>
<polygon fill="black" stroke="black" points="821.73,-141.92 831.73,-138.42 821.73,-134.92 821.73,-141.92"/>
</g>
<!-- ima/pools.py -->
<g id="node20" class="node">
<title>ima/pools.py</title>
<ellipse fill="none" stroke="black" cx="954.19" cy="-414.42" rx="59.54" ry="18"/>
<text xml:space="preserve" text-anchor="middle" x="954.19" y="-409.37" font-family="Times,serif" font-size="14.00">ima/pools.py</text>
</g>
<!-- ima/experiments.py&#45;&gt;ima/pools.py -->
<g id="edge10" class="edge">
<title>ima/experiments.py&#45;&gt;ima/pools.py</title>
<path fill="none" stroke="black" d="M702.95,-155.24C731.98,-171.5 773.15,-198.74 797.74,-233.42 828.97,-277.45 799.52,-307.67 833.74,-349.42 851.33,-370.87 877.94,-386.33 901.58,-396.77"/>
<polygon fill="black" stroke="black" points="900.22,-399.99 910.79,-400.63 902.92,-393.54 900.22,-399.99"/>
</g>
<!-- ima/feature_analysis.py -->
<g id="node8" class="node">
<title>ima/feature_analysis.py</title>
<ellipse fill="none" stroke="black" cx="668.6" cy="-314.42" rx="99.46" ry="18"/>
<text xml:space="preserve" text-anchor="middle" x="668.6" y="-309.37" font-family="Times,serif" font-size="14.00">ima/feature_analysis.py</text>
</g>
<!-- ima/feature_analysis.py&#45;&gt;ima/feature_sets.py -->
<g id="edge11" class="edge">
<title>ima/feature_analysis.py&#45;&gt;ima/feature_sets.py</title>
<path fill="none" stroke="black" d="M750.9,-303.99C777.29,-300.88 806.73,-297.69 833.74,-295.42 924.04,-287.81 1027.37,-282.73 1100.01,-279.75"/>
<polygon fill="black" stroke="black" points="1100.03,-283.25 1109.88,-279.35 1099.75,-276.26 1100.03,-283.25"/>
</g>
<!-- ima/feature_analysis.py&#45;&gt;ima/modeling.py -->
<g id="edge12" class="edge">
<title>ima/feature_analysis.py&#45;&gt;ima/modeling.py</title>
<path fill="none" stroke="black" d="M767.19,-317.17C800.01,-318.1 836.34,-319.12 868.12,-320.02"/>
<polygon fill="black" stroke="black" points="868,-323.52 878.1,-320.3 868.2,-316.52 868,-323.52"/>
</g>
<!-- ima/feature_sets.py&#45;&gt;ima/data.py -->
<g id="edge13" class="edge">
<title>ima/feature_sets.py&#45;&gt;ima/data.py</title>
<path fill="none" stroke="black" d="M1278.21,-276.42C1286.33,-276.42 1294.49,-276.42 1302.4,-276.42"/>
<polygon fill="black" stroke="black" points="1302.26,-279.92 1312.26,-276.42 1302.26,-272.92 1302.26,-279.92"/>
</g>
<!-- ima/historical_sources.py -->
<g id="node10" class="node">
<title>ima/historical_sources.py</title>
<ellipse fill="none" stroke="black" cx="106.11" cy="-146.42" rx="106.11" ry="18"/>
<text xml:space="preserve" text-anchor="middle" x="106.11" y="-141.37" font-family="Times,serif" font-size="14.00">ima/historical_sources.py</text>
</g>
<!-- ima/inference.py -->
<g id="node11" class="node">
<title>ima/inference.py</title>
<ellipse fill="none" stroke="black" cx="668.6" cy="-460.42" rx="73.87" ry="18"/>
<text xml:space="preserve" text-anchor="middle" x="668.6" y="-455.37" font-family="Times,serif" font-size="14.00">ima/inference.py</text>
</g>
<!-- ima/inference.py&#45;&gt;ima/data.py -->
<g id="edge14" class="edge">
<title>ima/inference.py&#45;&gt;ima/data.py</title>
<path fill="none" stroke="black" d="M697.71,-477.32C729.44,-495.33 783.25,-522.7 833.74,-533.42 938.47,-555.66 970.17,-556.85 1074.63,-533.42 1172.09,-511.56 1204.84,-505.6 1277.83,-437.42 1317.94,-399.95 1344.66,-340.46 1357.93,-305.24"/>
<polygon fill="black" stroke="black" points="1361.11,-306.74 1361.25,-296.15 1354.54,-304.34 1361.11,-306.74"/>
</g>
<!-- ima/inference.py&#45;&gt;ima/feature_sets.py -->
<g id="edge15" class="edge">
<title>ima/inference.py&#45;&gt;ima/feature_sets.py</title>
<path fill="none" stroke="black" d="M741.19,-464.4C841.82,-468.76 1019.03,-471.6 1074.63,-441.42 1129.52,-411.63 1165.21,-344.14 1182.01,-305.33"/>
<polygon fill="black" stroke="black" points="1185.22,-306.72 1185.84,-296.14 1178.76,-304.02 1185.22,-306.72"/>
</g>
<!-- ima/inference.py&#45;&gt;ima/modeling.py -->
<g id="edge16" class="edge">
<title>ima/inference.py&#45;&gt;ima/modeling.py</title>
<path fill="none" stroke="black" d="M702.96,-444.18C754.24,-419.23 852.44,-371.45 909.38,-343.74"/>
<polygon fill="black" stroke="black" points="910.69,-346.99 918.15,-339.47 907.63,-340.7 910.69,-346.99"/>
</g>
<!-- ima/inference.py&#45;&gt;ima/pools.py -->
<g id="edge17" class="edge">
<title>ima/inference.py&#45;&gt;ima/pools.py</title>
<path fill="none" stroke="black" d="M731.13,-450.44C778.09,-442.82 842.55,-432.37 889.93,-424.68"/>
<polygon fill="black" stroke="black" points="890.47,-428.14 899.78,-423.08 889.35,-421.23 890.47,-428.14"/>
</g>
<!-- ima/ledger.py -->
<g id="node12" class="node">
<title>ima/ledger.py</title>
<ellipse fill="none" stroke="black" cx="668.6" cy="-552.42" rx="62.1" ry="18"/>
<text xml:space="preserve" text-anchor="middle" x="668.6" y="-547.37" font-family="Times,serif" font-size="14.00">ima/ledger.py</text>
</g>
<!-- ima/ledger.py&#45;&gt;ima/domain.py -->
<g id="edge18" class="edge">
<title>ima/ledger.py&#45;&gt;ima/domain.py</title>
<path fill="none" stroke="black" d="M724.44,-560.58C747.47,-564.87 774.31,-571.02 797.74,-579.42 840.34,-594.68 885.9,-619.54 916.6,-637.7"/>
<polygon fill="black" stroke="black" points="914.74,-640.66 925.12,-642.8 918.34,-634.66 914.74,-640.66"/>
</g>
<!-- ima/market.py -->
<g id="node13" class="node">
<title>ima/market.py</title>
<ellipse fill="none" stroke="black" cx="106.11" cy="-200.42" rx="65.68" ry="18"/>
<text xml:space="preserve" text-anchor="middle" x="106.11" y="-195.37" font-family="Times,serif" font-size="14.00">ima/market.py</text>
</g>
<!-- ima/modeling.py&#45;&gt;ima/data.py -->
<g id="edge19" class="edge">
<title>ima/modeling.py&#45;&gt;ima/data.py</title>
<path fill="none" stroke="black" d="M1029.44,-322.93C1095.2,-322.22 1193.57,-318.34 1277.83,-303.42 1291.62,-300.98 1306.29,-297.13 1319.69,-293.1"/>
<polygon fill="black" stroke="black" points="1320.65,-296.47 1329.15,-290.15 1318.57,-289.78 1320.65,-296.47"/>
</g>
<!-- ima/modeling.py&#45;&gt;ima/feature_sets.py -->
<g id="edge20" class="edge">
<title>ima/modeling.py&#45;&gt;ima/feature_sets.py</title>
<path fill="none" stroke="black" d="M1013.73,-311.11C1045.63,-304.94 1085.44,-297.25 1119.46,-290.67"/>
<polygon fill="black" stroke="black" points="1120.11,-294.11 1129.27,-288.78 1118.78,-287.24 1120.11,-294.11"/>
</g>
<!-- ima/openrouter_orchestrator.py -->
<g id="node16" class="node">
<title>ima/openrouter_orchestrator.py</title>
<ellipse fill="none" stroke="black" cx="375.84" cy="-138.42" rx="127.61" ry="18"/>
<text xml:space="preserve" text-anchor="middle" x="375.84" y="-133.37" font-family="Times,serif" font-size="14.00">ima/openrouter_orchestrator.py</text>
</g>
<!-- ima/openrouter_orchestrator.py&#45;&gt;ima/experiments.py -->
<g id="edge21" class="edge">
<title>ima/openrouter_orchestrator.py&#45;&gt;ima/experiments.py</title>
<path fill="none" stroke="black" d="M503.95,-138.42C526.62,-138.42 549.89,-138.42 571.51,-138.42"/>
<polygon fill="black" stroke="black" points="571.48,-141.92 581.48,-138.42 571.48,-134.92 571.48,-141.92"/>
</g>
<!-- ima/operations.py -->
<g id="node17" class="node">
<title>ima/operations.py</title>
<ellipse fill="none" stroke="black" cx="375.84" cy="-314.42" rx="77.97" ry="18"/>
<text xml:space="preserve" text-anchor="middle" x="375.84" y="-309.37" font-family="Times,serif" font-size="14.00">ima/operations.py</text>
</g>
<!-- ima/registry.py -->
<g id="node21" class="node">
<title>ima/registry.py</title>
<ellipse fill="none" stroke="black" cx="668.6" cy="-260.42" rx="67.22" ry="18"/>
<text xml:space="preserve" text-anchor="middle" x="668.6" y="-255.37" font-family="Times,serif" font-size="14.00">ima/registry.py</text>
</g>
<!-- ima/operations.py&#45;&gt;ima/registry.py -->
<g id="edge22" class="edge">
<title>ima/operations.py&#45;&gt;ima/registry.py</title>
<path fill="none" stroke="black" d="M437.79,-303.1C485.68,-294.2 552.28,-281.84 601.46,-272.7"/>
<polygon fill="black" stroke="black" points="601.94,-276.17 611.13,-270.91 600.66,-269.29 601.94,-276.17"/>
</g>
<!-- ima/training.py -->
<g id="node25" class="node">
<title>ima/training.py</title>
<ellipse fill="none" stroke="black" cx="668.6" cy="-368.42" rx="68.24" ry="18"/>
<text xml:space="preserve" text-anchor="middle" x="668.6" y="-363.37" font-family="Times,serif" font-size="14.00">ima/training.py</text>
</g>
<!-- ima/operations.py&#45;&gt;ima/training.py -->
<g id="edge23" class="edge">
<title>ima/operations.py&#45;&gt;ima/training.py</title>
<path fill="none" stroke="black" d="M437.79,-325.74C485.53,-334.6 551.85,-346.92 600.98,-356.05"/>
<polygon fill="black" stroke="black" points="600.18,-359.46 610.65,-357.84 601.45,-352.57 600.18,-359.46"/>
</g>
<!-- ima/optimizer.py -->
<g id="node18" class="node">
<title>ima/optimizer.py</title>
<ellipse fill="none" stroke="black" cx="106.11" cy="-92.42" rx="74.89" ry="18"/>
<text xml:space="preserve" text-anchor="middle" x="106.11" y="-87.37" font-family="Times,serif" font-size="14.00">ima/optimizer.py</text>
</g>
<!-- ima/optimizer.py&#45;&gt;ima/data.py -->
<g id="edge24" class="edge">
<title>ima/optimizer.py&#45;&gt;ima/data.py</title>
<path fill="none" stroke="black" d="M163.97,-80.67C285.94,-55.87 569.61,-0.42 667.6,-0.42 667.6,-0.42 667.6,-0.42 955.19,-0.42 1104.42,-0.42 1166.78,6.28 1277.83,-93.42 1324.57,-135.39 1349.73,-207.13 1360.76,-247.18"/>
<polygon fill="black" stroke="black" points="1357.31,-247.81 1363.24,-256.59 1364.08,-246.03 1357.31,-247.81"/>
</g>
<!-- ima/optimizer.py&#45;&gt;ima/experiments.py -->
<g id="edge25" class="edge">
<title>ima/optimizer.py&#45;&gt;ima/experiments.py</title>
<path fill="none" stroke="black" d="M181.09,-93.42C260.84,-95.1 391.45,-99.56 503.45,-111.42 532.86,-114.53 565,-119.47 592.99,-124.28"/>
<polygon fill="black" stroke="black" points="592.36,-127.73 602.81,-126 593.56,-120.83 592.36,-127.73"/>
</g>
<!-- ima/optimizer.py&#45;&gt;ima/openrouter_orchestrator.py -->
<g id="edge26" class="edge">
<title>ima/optimizer.py&#45;&gt;ima/openrouter_orchestrator.py</title>
<path fill="none" stroke="black" d="M168.2,-102.91C201.84,-108.69 244.29,-115.99 281.96,-122.46"/>
<polygon fill="black" stroke="black" points="281.02,-125.85 291.46,-124.09 282.2,-118.95 281.02,-125.85"/>
</g>
<!-- ima/pipeline_transparency.py&#45;&gt;ima/data.py -->
<g id="edge27" class="edge">
<title>ima/pipeline_transparency.py&#45;&gt;ima/data.py</title>
<path fill="none" stroke="black" d="M1048.7,-149.89C1114.85,-160.36 1204.46,-179.4 1277.83,-212.42 1300.24,-222.51 1322.77,-238.55 1339.67,-252.05"/>
<polygon fill="black" stroke="black" points="1337.32,-254.65 1347.27,-258.27 1341.75,-249.23 1337.32,-254.65"/>
</g>
<!-- ima/pipeline_transparency.py&#45;&gt;ima/feature_sets.py -->
<g id="edge28" class="edge">
<title>ima/pipeline_transparency.py&#45;&gt;ima/feature_sets.py</title>
<path fill="none" stroke="black" d="M1039.47,-151.53C1051.65,-155.1 1063.74,-159.64 1074.63,-165.42 1114.14,-186.35 1150.2,-223.93 1171.93,-249.5"/>
<polygon fill="black" stroke="black" points="1169.21,-251.71 1178.3,-257.17 1174.59,-247.24 1169.21,-251.71"/>
</g>
<!-- ima/rich_features.py -->
<g id="node22" class="node">
<title>ima/rich_features.py</title>
<ellipse fill="none" stroke="black" cx="954.19" cy="-192.42" rx="87.69" ry="18"/>
<text xml:space="preserve" text-anchor="middle" x="954.19" y="-187.37" font-family="Times,serif" font-size="14.00">ima/rich_features.py</text>
</g>
<!-- ima/rich_features.py&#45;&gt;ima/data.py -->
<g id="edge29" class="edge">
<title>ima/rich_features.py&#45;&gt;ima/data.py</title>
<path fill="none" stroke="black" d="M1027.44,-202.71C1093.16,-212.66 1192.6,-229.17 1277.83,-249.42 1291.08,-252.57 1305.27,-256.54 1318.37,-260.46"/>
<polygon fill="black" stroke="black" points="1317.04,-263.71 1327.63,-263.28 1319.08,-257.02 1317.04,-263.71"/>
</g>
<!-- ima/rich_features.py&#45;&gt;ima/feature_sets.py -->
<g id="edge30" class="edge">
<title>ima/rich_features.py&#45;&gt;ima/feature_sets.py</title>
<path fill="none" stroke="black" d="M1013.14,-206.06C1032.85,-211.19 1054.88,-217.49 1074.63,-224.42 1099.52,-233.15 1126.5,-244.8 1148.43,-254.86"/>
<polygon fill="black" stroke="black" points="1146.84,-257.98 1157.39,-259.01 1149.79,-251.63 1146.84,-257.98"/>
</g>
<!-- ima/simulator.py -->
<g id="node23" class="node">
<title>ima/simulator.py</title>
<ellipse fill="none" stroke="black" cx="375.84" cy="-506.42" rx="74.38" ry="18"/>
<text xml:space="preserve" text-anchor="middle" x="375.84" y="-501.37" font-family="Times,serif" font-size="14.00">ima/simulator.py</text>
</g>
<!-- ima/simulator.py&#45;&gt;ima/auxiliary.py -->
<g id="edge31" class="edge">
<title>ima/simulator.py&#45;&gt;ima/auxiliary.py</title>
<path fill="none" stroke="black" d="M450.71,-506.42C558.49,-506.42 758.2,-506.42 870.67,-506.42"/>
<polygon fill="black" stroke="black" points="870.42,-509.92 880.42,-506.42 870.42,-502.92 870.42,-509.92"/>
</g>
<!-- ima/simulator.py&#45;&gt;ima/domain.py -->
<g id="edge32" class="edge">
<title>ima/simulator.py&#45;&gt;ima/domain.py</title>
<path fill="none" stroke="black" d="M386.18,-524.54C407.28,-563.26 462.87,-653.27 539.45,-687.42 660.32,-741.31 820.98,-703.87 901.93,-678.49"/>
<polygon fill="black" stroke="black" points="902.92,-681.84 911.37,-675.46 900.78,-675.18 902.92,-681.84"/>
</g>
<!-- ima/simulator.py&#45;&gt;ima/inference.py -->
<g id="edge33" class="edge">
<title>ima/simulator.py&#45;&gt;ima/inference.py</title>
<path fill="none" stroke="black" d="M438.86,-496.61C484.41,-489.4 546.45,-479.59 594.42,-472"/>
<polygon fill="black" stroke="black" points="594.85,-475.47 604.18,-470.45 593.76,-468.56 594.85,-475.47"/>
</g>
<!-- ima/simulator.py&#45;&gt;ima/pools.py -->
<g id="edge34" class="edge">
<title>ima/simulator.py&#45;&gt;ima/pools.py</title>
<path fill="none" stroke="black" d="M405.62,-489.47C437.23,-471.83 490.08,-445.18 539.45,-433.42 658.2,-405.12 801.4,-406 884.4,-409.8"/>
<polygon fill="black" stroke="black" points="884.03,-413.29 894.19,-410.28 884.37,-406.3 884.03,-413.29"/>
</g>
<!-- ima/strategy.py -->
<g id="node24" class="node">
<title>ima/strategy.py</title>
<ellipse fill="none" stroke="black" cx="668.6" cy="-660.42" rx="68.24" ry="18"/>
<text xml:space="preserve" text-anchor="middle" x="668.6" y="-655.37" font-family="Times,serif" font-size="14.00">ima/strategy.py</text>
</g>
<!-- ima/simulator.py&#45;&gt;ima/strategy.py -->
<g id="edge35" class="edge">
<title>ima/simulator.py&#45;&gt;ima/strategy.py</title>
<path fill="none" stroke="black" d="M394.01,-524.31C421.83,-552.17 479.69,-605.62 539.45,-633.42 556.52,-641.36 575.95,-646.98 594.43,-650.97"/>
<polygon fill="black" stroke="black" points="593.5,-654.35 603.99,-652.88 594.88,-647.49 593.5,-654.35"/>
</g>
<!-- ima/strategy.py&#45;&gt;ima/domain.py -->
<g id="edge36" class="edge">
<title>ima/strategy.py&#45;&gt;ima/domain.py</title>
<path fill="none" stroke="black" d="M737.16,-660.42C778.52,-660.42 831.61,-660.42 874.81,-660.42"/>
<polygon fill="black" stroke="black" points="874.63,-663.92 884.63,-660.42 874.63,-656.92 874.63,-663.92"/>
</g>
<!-- ima/training.py&#45;&gt;ima/data.py -->
<g id="edge37" class="edge">
<title>ima/training.py&#45;&gt;ima/data.py</title>
<path fill="none" stroke="black" d="M734.08,-373.87C847.22,-381.28 1087.57,-387.38 1277.83,-326.42 1297.69,-320.05 1318.14,-309.09 1334.52,-299.05"/>
<polygon fill="black" stroke="black" points="1336.28,-302.08 1342.86,-293.78 1332.54,-296.16 1336.28,-302.08"/>
</g>
<!-- ima/training.py&#45;&gt;ima/modeling.py -->
<g id="edge38" class="edge">
<title>ima/training.py&#45;&gt;ima/modeling.py</title>
<path fill="none" stroke="black" d="M727.67,-359C771.78,-351.84 832.72,-341.96 880.14,-334.27"/>
<polygon fill="black" stroke="black" points="880.46,-337.76 889.77,-332.71 879.34,-330.85 880.46,-337.76"/>
</g>
<!-- ima/training.py&#45;&gt;ima/pools.py -->
<g id="edge39" class="edge">
<title>ima/training.py&#45;&gt;ima/pools.py</title>
<path fill="none" stroke="black" d="M727.67,-377.84C774.78,-385.48 841.09,-396.24 889.62,-404.11"/>
<polygon fill="black" stroke="black" points="889,-407.55 899.43,-405.7 890.12,-400.64 889,-407.55"/>
</g>
</g>
</svg>
